HIERARCHY
ROOT Hips
{
	OFFSET 0.000000 83.214638 0.000000
	CHANNELS 6 Xposition Yposition Zposition Xrotation Yrotation Zrotation
	JOINT Pelvis
	{
		OFFSET 0.000000 0.000000 0.000000
		CHANNELS 3 Xrotation Yrotation Zrotation
		JOINT LeftUpLeg
		{
			OFFSET 8.479700 -4.795502 -0.379100
			CHANNELS 3 Xrotation Yrotation Zrotation
			JOINT LeftLeg
			{
				OFFSET 0.024144 -32.555107 0.112900
				CHANNELS 3 Xrotation Yrotation Zrotation
				JOINT LeftFoot
				{
					OFFSET -0.024144 -32.638630 -3.012600
					CHANNELS 3 Xrotation Yrotation Zrotation
					JOINT LeftToeBase
					{
						OFFSET 0.970200 -13.225400 11.864200
						CHANNELS 3 Xrotation Yrotation Zrotation
						End Site
						{
							OFFSET 0.000000 12.319262 0.000000
						}
					}
					JOINT LFootTongue
					{
						OFFSET 1.142400 -1.059800 6.665200
						CHANNELS 3 Xrotation Yrotation Zrotation
						End Site
						{
							OFFSET 0.000000 12.319262 0.000000
						}
					}
				}
				JOINT LeftPantLeg
				{
					OFFSET 0.918482 -16.533964 -2.284700
					CHANNELS 3 Xrotation Yrotation Zrotation
					End Site
					{
						OFFSET 0.350399 24.744368 0.000000
					}
				}
			}
		}
		JOINT RightUpLeg
		{
			OFFSET -8.479700 -4.795502 -0.379100
			CHANNELS 3 Xrotation Yrotation Zrotation
			JOINT RightLeg
			{
				OFFSET -0.023144 -32.555092 0.112900
				CHANNELS 3 Xrotation Yrotation Zrotation
				JOINT RightFoot
				{
					OFFSET 0.023144 -32.638641 -3.012700
					CHANNELS 3 Xrotation Yrotation Zrotation
					JOINT RightToeBase
					{
						OFFSET -0.970200 -13.225400 11.864200
						CHANNELS 3 Xrotation Yrotation Zrotation
						End Site
						{
							OFFSET 0.000000 12.319244 0.000000
						}
					}
					JOINT RFootTongue
					{
						OFFSET -1.142200 -1.059800 6.665200
						CHANNELS 3 Xrotation Yrotation Zrotation
						End Site
						{
							OFFSET 0.000000 12.319243 0.000000
						}
					}
				}
				JOINT RightPantLeg
				{
					OFFSET -0.919482 -16.533978 -2.284800
					CHANNELS 3 Xrotation Yrotation Zrotation
					End Site
					{
						OFFSET -0.350400 24.744419 0.000000
					}
				}
			}
		}
	}
	JOINT Spine
	{
		OFFSET 0.000000 7.722000 1.166200
		CHANNELS 3 Xrotation Yrotation Zrotation
		JOINT Spine1
		{
			OFFSET 0.000000 12.024101 0.248800
			CHANNELS 3 Xrotation Yrotation Zrotation
			JOINT Spine2
			{
				OFFSET 0.000000 11.502998 -0.491200
				CHANNELS 3 Xrotation Yrotation Zrotation
				JOINT Neck
				{
					OFFSET 0.000000 18.430702 -3.123100
					CHANNELS 3 Xrotation Yrotation Zrotation
					JOINT Head
					{
						OFFSET 0.000000 9.051102 1.034000
						CHANNELS 3 Xrotation Yrotation Zrotation
						JOINT HairB
						{
							OFFSET 0.208400 24.786102 24.822300
							CHANNELS 3 Xrotation Yrotation Zrotation
							End Site
							{
								OFFSET 0.000000 32.263779 0.000000
							}
						}
						JOINT HairA
						{
							OFFSET -7.081100 24.428299 23.196600
							CHANNELS 3 Xrotation Yrotation Zrotation
							End Site
							{
								OFFSET 0.000000 32.263779 0.000000
							}
						}
						JOINT Hat
						{
							OFFSET 16.728800 15.048294 -15.439601
							CHANNELS 3 Xrotation Yrotation Zrotation
							End Site
							{
								OFFSET 0.000000 32.263779 0.000000
							}
						}
					}
				}
				JOINT LeftShoulder
				{
					OFFSET 6.197800 13.665199 -4.064700
					CHANNELS 3 Xrotation Yrotation Zrotation
					JOINT LeftArm
					{
						OFFSET 7.778100 -0.187103 -1.709300
						CHANNELS 3 Xrotation Yrotation Zrotation
						JOINT LeftForeArm
						{
							OFFSET 22.049376 0.000000 0.000000
							CHANNELS 3 Xrotation Yrotation Zrotation
							JOINT LeftHand
							{
								OFFSET 23.009392 0.000000 0.000000
								CHANNELS 3 Xrotation Yrotation Zrotation
								JOINT LeftHandThumb1
								{
									OFFSET 3.507191 -2.063065 3.133727
									CHANNELS 3 Xrotation Yrotation Zrotation
									JOINT LeftHandThumb2
									{
										OFFSET 3.101337 -1.790558 1.790558
										CHANNELS 3 Xrotation Yrotation Zrotation
										JOINT LeftHandThumb3
										{
											OFFSET 3.058640 -1.765907 1.765906
											CHANNELS 3 Xrotation Yrotation Zrotation
											End Site
											{
												OFFSET -0.415260 3.926476 -0.049563
											}
										}
									}
								}
								JOINT LeftHandIndex1
								{
									OFFSET 11.334419 -0.901459 3.706815
									CHANNELS 3 Xrotation Yrotation Zrotation
									JOINT LeftHandIndex2
									{
										OFFSET 3.283112 0.000000 0.000000
										CHANNELS 3 Xrotation Yrotation Zrotation
										JOINT LeftHandIndex3
										{
											OFFSET 3.323853 0.000000 0.000000
											CHANNELS 3 Xrotation Yrotation Zrotation
											End Site
											{
												OFFSET -1.135597 3.097809 0.402452
											}
										}
									}
								}
								JOINT LeftHandMiddle1
								{
									OFFSET 11.335861 0.000000 0.000000
									CHANNELS 3 Xrotation Yrotation Zrotation
									JOINT LeftHandMiddle2
									{
										OFFSET 3.410492 0.000000 0.000000
										CHANNELS 3 Xrotation Yrotation Zrotation
										JOINT LeftHandMiddle3
										{
											OFFSET 3.312172 0.000000 0.000000
											CHANNELS 3 Xrotation Yrotation Zrotation
											End Site
											{
												OFFSET -1.150200 3.080154 0.400270
											}
										}
									}
								}
								JOINT LeftHandRing1
								{
									OFFSET 11.514786 -0.013176 -3.003090
									CHANNELS 3 Xrotation Yrotation Zrotation
									JOINT LeftHandRing2
									{
										OFFSET 3.053307 0.000000 0.000000
										CHANNELS 3 Xrotation Yrotation Zrotation
										JOINT LeftHandRing3
										{
											OFFSET 3.295807 0.000000 0.000000
											CHANNELS 3 Xrotation Yrotation Zrotation
											End Site
											{
												OFFSET -1.281006 3.013344 0.375733
											}
										}
									}
								}
								JOINT LeftHandPinky1
								{
									OFFSET 10.518692 -0.960396 -5.730441
									CHANNELS 3 Xrotation Yrotation Zrotation
									JOINT LeftHandPinky2
									{
										OFFSET 2.861649 0.000000 0.000000
										CHANNELS 3 Xrotation Yrotation Zrotation
										JOINT LeftHandPinky3
										{
											OFFSET 2.863380 0.000000 0.000000
											CHANNELS 3 Xrotation Yrotation Zrotation
											End Site
											{
												OFFSET -0.843597 2.711159 0.369971
											}
										}
									}
								}
							}
							JOINT LSleeve
							{
								OFFSET 6.676277 -0.344902 -1.011730
								CHANNELS 3 Xrotation Yrotation Zrotation
								End Site
								{
									OFFSET 0.000000 14.885353 0.000000
								}
							}
						}
					}
				}
				JOINT RightShoulder
				{
					OFFSET -6.197800 13.665199 -4.064700
					CHANNELS 3 Xrotation Yrotation Zrotation
					JOINT RightArm
					{
						OFFSET -7.778100 -0.187103 -1.709300
						CHANNELS 3 Xrotation Yrotation Zrotation
						JOINT RightForeArm
						{
							OFFSET -22.049376 0.000000 0.000000
							CHANNELS 3 Xrotation Yrotation Zrotation
							JOINT RightHand
							{
								OFFSET -23.009392 0.000000 0.000000
								CHANNELS 3 Xrotation Yrotation Zrotation
								JOINT RightHandThumb1
								{
									OFFSET -3.507191 -2.063065 3.133727
									CHANNELS 3 Xrotation Yrotation Zrotation
									JOINT RightHandThumb2
									{
										OFFSET -3.101337 -1.790558 1.790558
										CHANNELS 3 Xrotation Yrotation Zrotation
										JOINT RightHandThumb3
										{
											OFFSET -3.058640 -1.765907 1.765906
											CHANNELS 3 Xrotation Yrotation Zrotation
											End Site
											{
												OFFSET 0.415260 3.926476 -0.049563
											}
										}
									}
								}
								JOINT RightHandIndex1
								{
									OFFSET -11.334419 -0.901459 3.706815
									CHANNELS 3 Xrotation Yrotation Zrotation
									JOINT RightHandIndex2
									{
										OFFSET -3.283112 0.000000 0.000000
										CHANNELS 3 Xrotation Yrotation Zrotation
										JOINT RightHandIndex3
										{
											OFFSET -3.323853 0.000000 0.000000
											CHANNELS 3 Xrotation Yrotation Zrotation
											End Site
											{
												OFFSET 1.135597 3.097809 0.402452
											}
										}
									}
								}
								JOINT RightHandMiddle1
								{
									OFFSET -11.335861 0.000000 0.000000
									CHANNELS 3 Xrotation Yrotation Zrotation
									JOINT RightHandMiddle2
									{
										OFFSET -3.410492 0.000000 0.000000
										CHANNELS 3 Xrotation Yrotation Zrotation
										JOINT RightHandMiddle3
										{
											OFFSET -3.312172 0.000000 0.000000
											CHANNELS 3 Xrotation Yrotation Zrotation
											End Site
											{
												OFFSET 1.150200 3.080154 0.400270
											}
										}
									}
								}
								JOINT RightHandRing1
								{
									OFFSET -11.514786 -0.013176 -3.003090
									CHANNELS 3 Xrotation Yrotation Zrotation
									JOINT RightHandRing2
									{
										OFFSET -3.053307 0.000000 0.000000
										CHANNELS 3 Xrotation Yrotation Zrotation
										JOINT RightHandRing3
										{
											OFFSET -3.295807 0.000000 0.000000
											CHANNELS 3 Xrotation Yrotation Zrotation
											End Site
											{
												OFFSET 1.281006 3.013344 0.375733
											}
										}
									}
								}
								JOINT RightHandPinky1
								{
									OFFSET -10.518692 -0.960396 -5.730441
									CHANNELS 3 Xrotation Yrotation Zrotation
									JOINT RightHandPinky2
									{
										OFFSET -2.861649 0.000000 0.000000
										CHANNELS 3 Xrotation Yrotation Zrotation
										JOINT RightHandPinky3
										{
											OFFSET -2.863380 0.000000 0.000000
											CHANNELS 3 Xrotation Yrotation Zrotation
											End Site
											{
												OFFSET 0.843597 2.711159 0.369971
											}
										}
									}
								}
							}
							JOINT RSleeve
							{
								OFFSET -6.676277 -0.344902 -1.011730
								CHANNELS 3 Xrotation Yrotation Zrotation
								End Site
								{
									OFFSET 0.000000 14.885353 0.000000
								}
							}
						}
					}
				}
				JOINT Backpack
				{
					OFFSET 0.000000 -2.471497 36.677502
					CHANNELS 3 Xrotation Yrotation Zrotation
					End Site
					{
						OFFSET 0.000000 20.427315 0.000000
					}
				}
				JOINT Hood
				{
					OFFSET 0.000000 18.754097 -10.431000
					CHANNELS 3 Xrotation Yrotation Zrotation
					JOINT Hood1
					{
						OFFSET 0.000000 -5.011002 -7.685901
						CHANNELS 3 Xrotation Yrotation Zrotation
						End Site
						{
							OFFSET 0.000000 9.175140 0.000000
						}
					}
				}
				JOINT LHoodieString
				{
					OFFSET 5.250500 16.397697 3.089900
					CHANNELS 3 Xrotation Yrotation Zrotation
					JOINT LHoodieString1
					{
						OFFSET 0.257700 -6.364304 3.694600
						CHANNELS 3 Xrotation Yrotation Zrotation
						JOINT LHoodieString2
						{
							OFFSET 0.000000 -9.643799 2.679100
							CHANNELS 3 Xrotation Yrotation Zrotation
							End Site
							{
								OFFSET 0.000000 10.009018 0.000000
							}
						}
					}
				}
				JOINT RHoodieString
				{
					OFFSET -5.250500 16.397697 3.089900
					CHANNELS 3 Xrotation Yrotation Zrotation
					JOINT RHoodieString1
					{
						OFFSET -0.257700 -6.364304 3.694600
						CHANNELS 3 Xrotation Yrotation Zrotation
						JOINT RHoodieString2
						{
							OFFSET 0.000000 -9.643799 2.679100
							CHANNELS 3 Xrotation Yrotation Zrotation
							End Site
							{
								OFFSET 0.000000 10.009018 0.000000
							}
						}
					}
				}
			}
			JOINT LBackpack_Strap
			{
				OFFSET 15.223200 -7.719803 -6.610900
				CHANNELS 3 Xrotation Yrotation Zrotation
				End Site
				{
					OFFSET 0.000000 16.040596 0.000000
				}
			}
			JOINT RBackpack_Strap
			{
				OFFSET -15.223000 -7.719803 -6.610900
				CHANNELS 3 Xrotation Yrotation Zrotation
				End Site
				{
					OFFSET 0.000000 16.040596 0.000000
				}
			}
		}
	}
	JOINT BoyFacialAnim_Joint
	{
		OFFSET 1.000000 -82.208099 -1.550900
		CHANNELS 3 Xrotation Yrotation Zrotation
		End Site
		{
			OFFSET 0.000000 30.012791 0.000000
		}
	}
}
MOTION
Frames: 4
Frame Time: 0.016667
-0.376257 70.705925 0.852512 19.400900 -43.703297 5.502209 -0.000000 0.000001 -0.000000 -70.380141 -8.990517 15.314416 47.182254 -7.427482 4.656684 16.621953 -1.080534 -10.880497 -0.000000 0.000001 -0.000001 -0.000000 0.000001 -0.000000 0.000001 -0.000001 0.000001 -41.473342 -7.942809 -14.533743 57.501102 -8.945569 3.842457 -17.906722 -20.473950 18.720427 0.000000 0.000000 0.000000 0.000000 0.000000 0.000000 -0.000001 0.000000 0.000000 0.693376 6.478217 0.415608 -1.588675 4.492978 -2.192220 -1.597449 -0.195605 1.993554 12.118092 6.829906 -4.433334 -0.737340 20.027395 8.229675 -0.000000 0.000000 0.000001 -0.000000 0.000000 0.000001 -0.000000 0.000000 0.000001 3.544246 4.756004 -11.623020 -54.038841 -33.116445 -50.381548 0.000513 -81.882343 0.000520 -58.768375 25.992620 38.870296 -14.557447 10.837959 12.229975 0.749534 -4.257866 13.305500 0.000000 -0.000000 -0.000000 -0.809535 2.578171 -31.496447 3.095899 5.163785 -61.866972 -0.000001 -0.000000 -0.000002 -2.430838 1.729214 -41.460922 2.952356 5.084719 -60.259931 0.000001 -0.000002 0.000001 -6.054127 -0.166583 -49.857598 3.046240 5.137026 -61.313952 -0.000001 0.000000 -0.000002 -8.298307 -6.522665 -38.520143 2.848779 5.024403 -59.084401 -0.000000 0.000002 0.000000 0.000002 -0.000001 0.000001 -14.733702 2.115968 -4.463088 72.337536 138.834031 -52.653498 0.000005 29.080695 0.000009 -49.752457 -7.371291 -31.498749 8.377135 -4.904145 11.021986 21.620230 -18.183900 -18.379196 -0.000001 0.000001 0.000001 0.558926 -4.406594 25.436658 1.653040 -3.560356 49.799094 -0.000000 -0.000001 0.000003 10.969801 -12.875590 52.800818 6.387585 -4.324406 111.833713 -0.000001 0.000002 -0.000002 3.705083 -7.151323 57.622440 5.328198 -4.608683 98.293437 -0.000001 -0.000001 0.000004 0.474818 -5.172969 58.987665 3.194329 -4.421949 71.674154 -0.000000 -0.000000 -0.000002 -0.000001 0.000000 -0.000001 0.000001 -0.000000 -0.000000 0.000001 -0.000000 -0.000000 0.000001 -0.000000 -0.000000 0.000001 -0.000000 -0.000000 0.000001 -0.000000 0.000000 -0.000000 0.000001 -0.000000 0.000001 -0.000000 -0.000000 0.000001 -0.000000 0.000000 -0.000000 0.000001 -0.000000 -0.000000 0.000001 0.000001 -0.000000 0.000001 0.000001 -0.000000 0.000001 -0.000000 
-0.279005 71.169945 -1.809151 20.271802 -43.685108 6.154131 -0.000001 0.000002 0.000000 -72.456641 -6.860245 13.657336 54.110084 -8.554654 2.579874 11.461045 -0.669292 -12.945675 0.000001 0.000001 0.000000 0.000001 0.000001 0.000000 -0.000000 -0.000004 -0.000001 -43.960207 -8.248027 -13.453623 57.926500 -9.390622 5.185693 -17.798575 -20.400747 15.682307 -0.000000 -0.000000 0.000000 -0.000000 -0.000000 0.000000 0.000002 0.000001 0.000001 0.953732 6.449947 0.633642 -1.410112 4.462638 -2.203678 -1.413473 -0.229856 1.985880 11.799611 6.804079 -4.313537 -1.333353 19.778524 8.281244 -0.000002 -0.000000 0.000000 -0.000002 -0.000000 0.000000 -0.000002 -0.000000 0.000000 3.460877 4.416669 -11.409035 -54.824600 -33.117757 -50.523401 0.000411 -81.497039 0.000416 -58.132341 25.445089 38.283955 -14.557445 10.837955 12.229973 0.749533 -4.257867 13.305500 0.000002 -0.000002 -0.000001 -0.809532 2.578170 -31.496447 3.095900 5.163786 -61.866966 -0.000001 0.000001 -0.000003 -2.430840 1.729214 -41.460918 2.952356 5.084723 -60.259931 -0.000002 0.000001 -0.000002 -6.054128 -0.166585 -49.857587 3.046240 5.137027 -61.313952 -0.000001 0.000001 -0.000000 -8.298306 -6.522666 -38.520143 2.848776 5.024405 -59.084408 0.000000 0.000001 -0.000000 0.000001 -0.000000 0.000004 -14.724954 2.110614 -4.402640 72.361975 139.310560 -53.074596 -0.000004 28.936937 0.000004 -48.762445 -6.817471 -31.328561 8.377134 -4.904142 11.021986 21.620230 -18.183893 -18.379199 0.000002 0.000001 0.000002 0.558927 -4.406593 25.436659 1.653038 -3.560356 49.799094 -0.000000 -0.000000 -0.000000 10.969802 -12.875592 52.800822 6.387587 -4.324405 111.833713 0.000001 0.000001 -0.000003 3.705083 -7.151322 57.622440 5.328198 -4.608684 98.293450 -0.000000 -0.000001 0.000004 0.474819 -5.172969 58.987665 3.194328 -4.421949 71.674147 0.000001 0.000000 -0.000003 -0.000001 0.000000 0.000000 0.000001 -0.000001 0.000001 0.000001 -0.000001 0.000001 0.000001 -0.000001 0.000001 0.000001 -0.000001 0.000001 0.000001 -0.000001 0.000000 -0.000000 -0.000001 0.000000 0.000001 -0.000001 0.000001 0.000001 -0.000001 0.000000 -0.000000 -0.000001 0.000000 0.000001 0.000001 -0.000000 0.000001 0.000001 -0.000000 -0.000001 0.000002 0.000000 
-0.129720 71.679779 -4.375124 21.556538 -44.233248 7.074806 -0.000001 0.000002 0.000001 -73.477864 -4.513246 12.359245 59.152457 -9.710769 0.872505 8.107808 -1.624798 -15.734852 0.000001 -0.000000 -0.000001 0.000001 -0.000000 -0.000001 0.000000 -0.000001 0.000000 -46.480779 -8.800837 -12.615846 57.758108 -9.613939 6.811830 -17.177950 -19.081527 12.380223 -0.000000 -0.000000 -0.000000 -0.000000 -0.000000 -0.000000 -0.000001 -0.000000 0.000002 1.072162 6.810663 0.836565 -1.310870 4.621472 -2.233296 -1.314411 -0.079138 1.955557 11.539372 6.719166 -4.205101 -1.771500 19.427322 8.399850 -0.000001 0.000000 -0.000000 -0.000001 0.000000 -0.000000 -0.000001 0.000000 -0.000000 3.451690 4.257291 -11.406564 -55.761538 -33.679325 -50.844847 -0.000110 -80.674192 -0.000100 -57.419290 24.773812 37.437991 -14.557450 10.837961 12.229972 0.749531 -4.257869 13.305500 0.000000 -0.000001 -0.000001 -0.809535 2.578171 -31.496447 3.095901 5.163785 -61.866972 0.000000 -0.000001 -0.000002 -2.430840 1.729214 -41.460922 2.952357 5.084720 -60.259925 -0.000000 0.000001 -0.000001 -6.054129 -0.166583 -49.857587 3.046241 5.137027 -61.313952 -0.000001 0.000001 -0.000002 -8.298308 -6.522667 -38.520143 2.848779 5.024403 -59.084408 -0.000000 0.000002 -0.000002 0.000002 0.000001 0.000004 -14.702144 2.142271 -4.298178 72.738632 139.648982 -53.738999 -0.000007 28.981988 -0.000003 -47.783430 -6.248430 -31.304143 8.377132 -4.904142 11.021987 21.620226 -18.183897 -18.379196 0.000001 0.000001 0.000002 0.558926 -4.406593 25.436658 1.653038 -3.560357 49.799097 0.000000 0.000000 0.000005 10.969804 -12.875592 52.800825 6.387583 -4.324406 111.833713 -0.000001 -0.000002 0.000003 3.705083 -7.151322 57.622447 5.328199 -4.608682 98.293444 -0.000001 0.000000 -0.000001 0.474821 -5.172968 58.987665 3.194329 -4.421950 71.674154 0.000000 -0.000000 -0.000003 -0.000001 -0.000002 -0.000000 0.000001 -0.000000 -0.000000 0.000001 -0.000000 -0.000000 0.000001 -0.000000 -0.000000 0.000001 -0.000000 -0.000000 0.000001 -0.000000 0.000000 0.000001 -0.000000 -0.000000 0.000001 -0.000000 -0.000000 0.000001 -0.000000 0.000000 0.000001 -0.000000 -0.000000 -0.000000 0.000000 0.000000 -0.000000 0.000000 0.000000 -0.000001 0.000002 0.000001 
0.042794 72.157333 -6.861422 23.229451 -45.269657 8.211432 -0.000000 0.000000 -0.000000 -73.721783 -2.325595 11.396687 62.274106 -9.677706 -0.496984 6.949133 -5.137371 -18.613234 0.000001 -0.000003 -0.000002 0.000001 -0.000003 -0.000002 0.000000 -0.000003 0.000000 -48.825085 -9.686135 -11.995095 57.140075 -9.841798 8.694585 -16.186631 -16.093365 9.349579 -0.000000 -0.000000 -0.000000 -0.000000 -0.000000 -0.000000 -0.000000 0.000001 -0.000001 1.051384 7.489080 1.053414 -1.289601 4.928872 -2.265304 -1.295697 0.217595 1.919091 11.325046 6.588909 -4.114616 -2.085914 19.014980 8.543326 0.000002 0.000000 0.000000 0.000002 0.000000 0.000000 0.000002 0.000000 0.000000 3.505662 4.264404 -11.583825 -56.751857 -34.575497 -51.320850 -0.000056 -79.627636 -0.000066 -56.773209 24.062581 36.543339 -14.557449 10.837959 12.229975 0.749534 -4.257864 13.305506 0.000001 0.000001 0.000000 -0.809534 2.578171 -31.496447 3.095902 5.163786 -61.866972 -0.000002 0.000001 -0.000000 -2.430841 1.729213 -41.460922 2.952357 5.084722 -60.259931 -0.000000 0.000001 0.000002 -6.054128 -0.166585 -49.857587 3.046242 5.137027 -61.313952 -0.000001 0.000001 -0.000002 -8.298309 -6.522665 -38.520143 2.848778 5.024404 -59.084408 -0.000000 0.000000 -0.000002 -0.000000 0.000001 -0.000001 -14.671333 2.216723 -4.184593 73.273709 139.812961 -54.505360 0.000007 29.166154 -0.000003 -46.933566 -5.789919 -31.371756 8.377132 -4.904142 11.021986 21.620226 -18.183898 -18.379196 0.000004 -0.000002 -0.000003 0.558925 -4.406593 25.436661 1.653039 -3.560357 49.799094 -0.000001 0.000000 0.000002 10.969801 -12.875590 52.800818 6.387584 -4.324407 111.833713 0.000001 -0.000002 0.000001 3.705081 -7.151322 57.622440 5.328200 -4.608684 98.293444 -0.000001 0.000000 0.000000 0.474820 -5.172968 58.987665 3.194330 -4.421949 71.674154 -0.000000 -0.000000 0.000000 0.000002 -0.000000 0.000000 0.000001 0.000001 -0.000000 0.000001 0.000001 -0.000000 0.000001 0.000001 -0.000000 0.000001 0.000001 -0.000000 0.000001 0.000001 -0.000000 0.000001 -0.000003 0.000000 0.000001 0.000001 -0.000000 0.000001 0.000001 -0.000000 0.000001 -0.000003 0.000000 -0.000001 -0.000000 -0.000000 -0.000001 -0.000000 -0.000000 -0.000000 0.000000 -0.000000 
